PathFileType	4	(X/Y/Z)	0_coords_data.trc
DataRate	CameraRate	NumFrames	NumMarkers	Units	OrigDataRate	OrigDataStartFrame	OrigNumFrames
30.0	30.0	7	21	m	30.0	42	62
Frame#	Time	THUMB_TIP	THUMB_IP	THUMB_MCP	THUMB_CMC	INDEX_TIP	INDEX_DIP	INDEX_PIP	INDEX_MCP	MIDDLE_TIP	MIDDLE_DIP	MIDDLE_PIP	MIDDLE_MCP	RING_TIP	RING_DIP	RING_PIP	RING_MCP	PINKY_TIP	PINKY_DIP	PINKY_PIP	PINKY_MCP	WRIST
X1	Y1	Z1	X2	Y2	Z2	X3	Y3	Z3	X4	Y4	Z4	X5	Y5	Z5	X6	Y6	Z6	X7	Y7	Z7	X8	Y8	Z8	X9	Y9	Z9	X10	Y10	Z10	X11	Y11	Z11	X12	Y12	Z12	X13	Y13	Z13	X14	Y14	Z14	X15	Y15	Z15	X16	Y16	Z16	X17	Y17	Z17	X18	Y18	Z18	X19	Y19	Z19	X20	Y20	Z20	X21	Y21	Z21
40	1.3666666666666607	0.4927641456589872	-0.044598525487483	-0.16661764271514978	0.49539056869856624	-0.04051256997512942	-0.14415863851709515	0.478164974381184	-0.039179081919380465	-0.11826808599270605	0.47832224690634406	-0.03051045258707763	-0.0745105708569952	0.5642295538136683	0.024772161493002876	-0.17471795225721137	0.5487997295149175	0.02349101804014231	-0.165322251455096	0.528695005996805	0.018980564577222414	-0.15091858057510554	0.5014045068539565	0.003164209154061459	-0.12230551272731183	0.5850537671629938	0.043744666418589206	-0.14807459317896565	0.5688577399426533	0.04116788206349731	-0.1403902659692911	0.5431561628577533	0.03543547914730372	-0.12790114902070937	0.5095074037605518	0.016378222206278714	-0.10552415435872964	0.5873889322207313	0.053302012077720895	-0.11687775561002112	0.5707626655088014	0.05071718873978348	-0.11040582054116987	0.5479030352753254	0.04513611577833676	-0.10225297384889392	0.518643406449623	0.02154343836187711	-0.0873539628983302	0.5861479503404146	0.046462409347839184	-0.07318377641281759	0.5694347414673346	0.04590015230264022	-0.06952966692076251	0.548911413056627	0.042365950085638926	-0.06686237904061404	0.5206014426416898	0.020026457844892875	-0.0662490988998734	0.462283081001861	-0.023011742144276925	-0.051989820119430985
41	1.3999999999999937	0.49185365863980335	-0.04634593977723889	-0.16646329224751688	0.49495641378570054	-0.04179114614053825	-0.14415574273100384	0.47794347471003906	-0.039715722638080986	-0.1181735849820163	0.47826901418264034	-0.030679951075618828	-0.07449133622668347	0.561898874130297	0.027821612275769514	-0.17723556840995375	0.5474386815797974	0.024694733122542778	-0.1667892552726027	0.5286585321077077	0.018330879527029387	-0.15133554419012024	0.5018958105641981	0.0022947542637777874	-0.12234872794331803	0.5835182991717175	0.048320448457174536	-0.14933184265969418	0.5681700592360165	0.043234192952091854	-0.14117331731419397	0.5435030819756983	0.03480062846670717	-0.12814163388841188	0.5100643941610052	0.01543000988886356	-0.10571885051651064	0.5863222876459172	0.057469599282440775	-0.11751706870752976	0.5703903150534114	0.05237514663285969	-0.1107925760491335	0.5483395603020466	0.04448853891346305	-0.10232229786152264	0.5191463162957458	0.020712910231459047	-0.08758476688906819	0.585986824844799	0.05026627658180549	-0.07188629794979484	0.5693864650658182	0.04726943128135408	-0.06897993020748217	0.5492131458300136	0.041840653071783085	-0.06688766417239045	0.5209418497163976	0.01944582491228042	-0.06658943814636598	0.4622830810018608	-0.023011742144276925	-0.051989820119430985
42	1.4333333333333271	0.4910094838246849	-0.04787209427005312	-0.16632514652422087	0.4945813335774598	-0.04290277873706727	-0.14417683298848577	0.4777978958781949	-0.040138298856182586	-0.11810972977422207	0.478205628505061	-0.030824105209473873	-0.07448669055391322	0.5598577069790591	0.030082629826227225	-0.17888659610868846	0.5462938999109088	0.025515314306068015	-0.16778872393618124	0.528658517036704	0.017705443427492917	-0.15166392872073153	0.5022560105755827	0.0015761782838549232	-0.12239977740044428	0.5819449371063833	0.05159489401786088	-0.15015314734841545	0.5675150233312258	0.04460646333812146	-0.14173059280267342	0.543841045080701	0.03412373567182814	-0.1283490859940961	0.5104753059934568	0.014667887990276296	-0.10589145105285136	0.5853200905318445	0.06027906623557855	-0.11785700850152092	0.5701465811328691	0.053343988744448345	-0.11102551432299579	0.5488560462027406	0.04373152305285355	-0.10239454654893398	0.5195335524528547	0.020027947428598925	-0.08779822177476043	0.5857092823899577	0.052782924785773955	-0.07095651657755842	0.5694416147421535	0.04796937807381574	-0.06867775433625672	0.5496565142718093	0.041133361447663	-0.06705581257856552	0.5211707582813754	0.019010346528799626	-0.06692402656556729	0.4622830810018608	-0.023011742144276925	-0.051989820119430985
43	1.4666666666666603	0.49022786454029	-0.04933042765039941	-0.16613814085465733	0.49427257242020006	-0.043942095367011325	-0.14416984066165217	0.47770297832066266	-0.04054022216424391	-0.11804139237077826	0.47815645436453746	-0.030940276629025765	-0.07448079773298116	0.5582327572957189	0.03171067538846606	-0.17992308140284885	0.545439922532184	0.026020425539384218	-0.16843550396598628	0.5287430996117374	0.017082265407435515	-0.1519026508904009	0.5025642319007666	0.0009496104448837306	-0.12244012514614833	0.5805673550035266	0.05395857575827201	-0.150587398146307	0.5669514271387583	0.045590917386775565	-0.14206749194028845	0.5441555343596485	0.03352503398013362	-0.1284965199772839	0.5108385700621308	0.013991908800854658	-0.10603355419516697	0.5844157947509954	0.06231365464081107	-0.11789756357718767	0.5699355148063607	0.054029955166788324	-0.11106369090138435	0.5493052784730746	0.04310180598560498	-0.10239484534349336	0.5198527492184959	0.0194530928480664	-0.08797237255112506	0.5853594773434939	0.054491721982469876	-0.0701050274493199	0.5694764931263943	0.04835992206055595	-0.06833532632286415	0.5500420960614388	0.040508557268584044	-0.06712194236671681	0.5213373553868786	0.01867023361070652	-0.0672164601959559	0.4622830810018609	-0.023011742144276925	-0.051989820119430985
44	1.4999999999999936	0.4896060195498022	-0.050673949528985074	-0.16588973194942747	0.49407594821559664	-0.04488050806019794	-0.14410772621830964	0.47765386180413916	-0.0408746484298117	-0.11797177078300441	0.4781341672384718	-0.031019148716861622	-0.07446857053178385	0.5571484460609324	0.03288706627100724	-0.1804215036245605	0.5449819399269427	0.026332793668824905	-0.16871605023104042	0.528986521729758	0.016563389367937775	-0.15196149355821303	0.5028743727172155	0.0004454487991302214	-0.12243178377692387	0.5795679823269251	0.05564988431879636	-0.1506364203830498	0.5666005225586943	0.04632146723247077	-0.1421026274500765	0.5445090781257595	0.03307040045341281	-0.12847226200803868	0.5111905957576216	0.01346642944457399	-0.1060733563568983	0.5837843212081589	0.06371940785863606	-0.11762881343946141	0.5698800986024319	0.05446890995021847	-0.11083905039670688	0.5497676470548816	0.04258431499331594	-0.10221201878335257	0.5201462098294389	0.018997155142854383	-0.08803678753698724	0.5850889000496251	0.05558634926142769	-0.0691766086282638	0.5695567420332065	0.04852480466258646	-0.06780305293897498	0.5504178802914422	0.03993398582824648	-0.06695817307462498	0.521479132460864	0.018410521146528858	-0.06737385696059378	0.4622830810018609	-0.023011742144276925	-0.051989820119430985
45	1.5333333333333266	0.4892248969797085	-0.05192877146278829	-0.16562040485001184	0.49404107215601434	-0.04573988405755858	-0.1440217444897829	0.477747082128096	-0.04117576850405924	-0.11789714424050818	0.4781350467627433	-0.031064395598361383	-0.07445178060519969	0.5563768239776127	0.033860632821706926	-0.18061939933806287	0.5447052188103371	0.026671496272310802	-0.1687834393646023	0.5292162523799133	0.01627633375508486	-0.15192988341466507	0.5032220708954726	2.4661741208187316e-05	-0.12236940676581282	0.5788873839941021	0.05686639524381343	-0.15047459731195917	0.5664066930118584	0.04686969183339984	-0.14197175816671093	0.5448339040992932	0.03279044607649839	-0.12834094133679658	0.511528692483631	0.013034306036717291	-0.10605628897324104	0.5833531104033536	0.06469447669059147	-0.11723301059302932	0.5698836664610718	0.05477457239149064	-0.11051217890473264	0.5501547739753447	0.042211764957862274	-0.10196076675981808	0.5204353165973006	0.018603031592781538	-0.08802870316352535	0.5849106866295848	0.056229059886424904	-0.0682997966645228	0.5696533622500111	0.04854184417849483	-0.0672411336226536	0.5507265745406713	0.03947009877105734	-0.06670061417968948	0.5216122720104014	0.018193604961886378	-0.06744334587029832	0.462283081001861	-0.023011742144276925	-0.051989820119430985
46	1.5666666666666598	0.4890530442168265	-0.053147065657299986	-0.16529082502685288	0.49411803470485693	-0.04656540190138925	-0.1438658962390998	0.4778825097624828	-0.04146752269671683	-0.11780367535406933	0.4781639080528286	-0.031105534398969348	-0.07441658034276971	0.5558329836428804	0.03462296068168247	-0.18066669258369256	0.5445106148157248	0.026990478086270087	-0.16876924859043974	0.5294045827719791	0.0161241654963743	-0.1518653768566623	0.5035473578302938	-0.0003205288804803974	-0.12229153640319856	0.5784227930748594	0.057762439600126836	-0.1502477034121555	0.5662925163675078	0.04730851310079687	-0.14178769113381412	0.5450791898153862	0.03266274703997951	-0.1281896816072376	0.5118512830074462	0.012660546230583769	-0.10600937293166984	0.5830719010608836	0.06534089552864497	-0.1168552855116512	0.5699068348900656	0.05497676921001582	-0.1102020217734937	0.550443717121601	0.0419500518100272	-0.10173611015620654	0.5206956054620917	0.01826424747411004	-0.0879973562223878	0.5848174299802018	0.056552279334652567	-0.06756020407244678	0.5697377054154404	0.04849447927395678	-0.06673937203555491	0.5509382592547155	0.03915087657050287	-0.06643948610722483	0.5217291662063333	0.01801653955377247	-0.06746522152838014	0.4622830810018608	-0.023011742144276925	-0.051989820119430985
